<svg width="652" height="652" viewBox="0 0 652 652" fill="none" xmlns="http://www.w3.org/2000/svg">
<path d="M519 293.4C524.3 293.4 527.4 295.7 528.6 300.5C530.1 306.9 527.6 312.8 525.2 316.5C520.9 323.3 513.6 328.7 506.4 330.5C505.7 329.1 505.3 327.3 504.9 325.4C504.1 321.8 503.3 317.7 499.5 316.3L499 316.1L498.5 316.3C481 324.4 476 345 471.1 365C470.4 367.8 469.8 370.5 469 373.3C466.8 373.8 464.6 374 462.2 374C454.4 374 446.6 371.3 442.6 367.2C444.1 350.8 449.5 338 454.7 325.7C458.8 315.9 463.1 305.7 465.5 293.8C466.8 293.7 468.1 293.6 469.3 293.6C477.5 293.6 486.7 296.9 488.1 306.3L488.6 309.8L490.5 306.8C492.7 303.4 508.1 293.4 519 293.4ZM273.3 371.9C276.5 371.5 280 371.2 284 371.2C290.6 371.2 297.5 371.8 304.3 372.4C311 373 317.3 373.5 323.3 373.5C334.9 373.5 341.9 371.4 346.2 366.7C349.9 362.7 351.5 356.6 350.9 348.2C350.3 348.4 349.7 348.6 349.1 348.8C340.3 351.6 330.4 354.8 319.6 354.8C315.8 354.8 312 354.4 308.5 353.6L305.5 352.9L308 351.2C312.6 348 317.8 345.1 322.9 342.2C341.3 331.6 360.4 320.7 361.3 296.5C357.7 297.7 353.7 298.3 348.9 298.3C341.8 298.3 334.2 297 326.9 295.7C320.2 294.5 313.8 293.4 308.2 293.4C305.9 293.4 304 293.6 302.3 294C292.4 296.2 286.4 307 287.7 320C289 319.7 290.4 319.5 291.8 319.2C299 317.8 307.2 316.2 315.4 316.2C319.4 316.2 323 316.6 326.4 317.3L329.4 318L326.8 319.7C321.2 323.4 314.4 326.3 307.8 329.2C288.3 337.5 269.9 345.5 273.3 371.9ZM240.1 309.6L238.1 309.9C216.5 312.7 200.9 333.7 203.3 356.6L203.5 358.2L205 357.7C226.1 351.3 233.7 331.4 239.6 311.6L240.1 309.6ZM276.2 308.2C266.8 326.2 255 348.4 259 374C258.4 374 257.7 374.1 257.1 374.1C246.1 374.1 240.1 369.3 233.7 364.2C232.7 363.4 231.6 362.5 230.5 361.7L229.6 361L228.8 361.7C221.3 368.4 207.5 373.4 196.6 373.4C187.8 373.4 177.1 370.4 176.2 355.9C175.4 342.7 181 328.9 192.2 317.1C205.9 302.5 225.4 293.4 243.1 293.4C256.4 293.4 267.8 298.5 276.3 308L276.2 308.2ZM585.5 309.6L583.5 309.9C561.9 312.7 546.3 333.7 548.7 356.6L548.9 358.2L550.4 357.7C571.5 351.3 579.1 331.4 585 311.6L585.5 309.6ZM621.6 308.2C612.2 326.2 600.4 348.4 604.4 374C603.8 374 603.1 374.1 602.5 374.1C591.5 374.1 585.5 369.3 579.1 364.2C578.1 363.4 577 362.5 575.9 361.7L575 361L574.2 361.7C566.7 368.4 552.9 373.4 542 373.4C533.2 373.4 522.5 370.4 521.6 355.9C520.8 342.7 526.4 328.9 537.6 317.1C551.3 302.5 570.8 293.4 588.5 293.4C601.8 293.4 613.2 298.5 621.7 308L621.6 308.2ZM426.3 307.4L425.1 307.2C423.9 307 422.7 306.9 421.5 306.9C407.9 306.9 402.1 320.1 397.4 330.7L395.6 334.9L398.4 333.9C411.3 329.6 424.7 325.1 426.1 308.6L426.3 307.4ZM431.3 293.5C438.1 294.8 447.6 301.1 445.7 313.1C442.9 331.2 418.7 338.5 401 343.9L396.2 345.4L396.7 346.7C399.1 352.7 403.1 355.8 408.8 355.8C414.8 355.8 421.6 352.4 427.5 349.4C430.8 347.7 433.9 346.1 436.1 345.7C436 350.3 433.9 354.8 430.1 359C421.7 368 405.6 374.2 390.7 374.2C382 374.2 361.7 371.9 360.7 350.2C360.1 337.9 366 324.3 376.7 313.1C388.9 300.3 405.7 292.7 421.6 292.7C424.9 292.5 428.1 292.9 431.3 293.5Z" fill="#178060"/>
<path d="M247.8 246.5C254.7 256.8 220.1 262.7 214.8 259.8C202.3 252.9 242.6 238.6 247.8 246.5ZM117.7 364.8C121.1 370 129.9 373.4 140.2 373.4C143 373.4 145.7 373.2 148.3 372.7C154.6 343.9 163.1 315.5 170.7 294C150.6 301.4 140.9 307.3 134.4 310.4C126.9 334.5 118.9 361 117.7 364.8ZM217.1 270.6C216 270.5 212.6 270.9 212.5 270.9C124.7 277.6 87.2 305.1 87.2 305.1C87.2 305.1 94.7 283.5 97.5 276.4C104.8 258 106.9 238.5 101.8 229.4C99.1 224.7 94.5 220.4 87.9 218.7C52.5 209.6 31.6 225.9 23.9 245C20.5 253.5 21.3 262.2 26.4 269.7C31.8 277.7 36.9 280 46.6 280.7C43.4 269.9 48.1 257.4 53.4 249.5C54.7 247.6 57.1 245.1 60 243.7C63.2 242.2 65.4 241.9 65.8 241.9C71.8 241.5 75.8 243.8 73.7 251.8C68.7 270.7 62.2 287.2 56 304.2C48.7 324.3 44 340.6 36.3 364.6C41.5 370.8 54.6 371.7 65.3 371.7C65.6 369.5 67.6 362.4 67.6 362.4C98.8 301.7 214.2 273.9 216.2 273.3C221.1 272.1 217.9 270.7 217.1 270.6ZM194.5 237.3C195.4 235.7 196.4 234.2 197.4 232.7C199.8 228.9 202.1 225.4 203.7 221.3C198.6 220 193.9 219.3 189.5 219.3C163.9 219.3 152.6 243.5 144.3 268.9C143.7 270.9 143 272.9 142.4 274.8L141.6 277.3C152 274.6 163.7 272.2 176.8 270.3C181.6 259.2 187.9 248.5 194.5 237.3Z" fill="#178060"/>
<path d="M586.7 428.1H591.9V414.1C591.9 410.6 594.1 407.9 597.6 407.9C600.7 407.9 602.1 409.5 602.2 413.2V428.1H607.4V411.8C607.4 406.5 604.1 403.7 599 403.7C595.9 403.7 593.2 405.3 591.9 407.5H591.8V395.3H586.6V428.1H586.7ZM569 408.3H573V422.3C573.1 426.3 574.1 428.4 579.5 428.4C580.7 428.4 581.7 428.2 582.9 428.1V424.1C582.2 424.3 581.4 424.3 580.7 424.3C578.4 424.3 578.2 423.2 578.2 421V408.4H582.9V404.5H578.2V397.4H573V404.5H569V408.3ZM540.9 428.1H546.4L550.8 410.5H550.9L555.3 428.1H560.7L568.1 404.4H562.8L558 422.1H557.9L553.6 404.4H548.3L543.9 422.1H543.8L539.2 404.4H533.7L540.9 428.1ZM519.4 428.8C527 428.8 531.4 423.6 531.4 416.3C531.4 409.1 527 403.8 519.4 403.8C511.8 403.8 507.4 409 507.4 416.3C507.5 423.6 511.8 428.8 519.4 428.8ZM519.4 424.7C514.7 424.7 512.7 420.4 512.7 416.3C512.7 412.2 514.8 408 519.4 408C524.1 408 526.1 412.3 526.1 416.3C526.2 420.4 524.1 424.7 519.4 424.7ZM493.3 428.1H498.5V416.8C498.5 411.6 501.3 408.7 504.9 408.7C505.6 408.7 506.4 408.8 507.1 408.9V403.9C506.7 403.9 506.3 403.8 505.1 403.8C501.9 403.8 498.8 406.5 498.2 409H498.1V404.4H493.2V428.1H493.3ZM487.8 410.9H473.9V415.3H482.6C482.5 420.8 479.3 424.4 473.4 424.3C466.4 424.3 463.5 418.1 463.5 411.8C463.5 405.5 466.4 399.3 473.4 399.3C477.5 399.3 481.3 401.5 481.8 405.8H487.4C486.5 398.4 480.5 394.6 473.4 394.6C463.6 394.6 457.7 402.4 457.7 411.7C457.7 421 463.6 428.8 473.4 428.8C477.4 428.8 480.2 427.6 483.3 424.2L484.2 428H487.9V410.9H487.8ZM428.9 408.3H432.8V428.1H438V408.3H442.4V404.4H438V402C438 400 439.1 399.5 440.6 399.5C441.7 399.5 442.3 399.6 443 399.8V395.7C442.2 395.5 441 395.4 439.3 395.4C435.9 395.4 432.8 396.4 432.8 402.5V404.5H428.9V408.3ZM415 428.8C422.6 428.8 427 423.6 427 416.3C427 409.1 422.6 403.8 415 403.8C407.4 403.8 403 409 403 416.3C403 423.6 407.4 428.8 415 428.8ZM415 424.7C410.3 424.7 408.3 420.4 408.3 416.3C408.3 412.2 410.4 408 415 408C419.7 408 421.7 412.3 421.7 416.3C421.7 420.4 419.6 424.7 415 424.7ZM366.3 420.5C366.4 426.1 370.8 428.7 376.8 428.7C381.7 428.7 387.4 426.6 387.4 421C387.4 416.3 383.6 415 379.7 414.1C375.9 413.2 372 412.9 372 410.3C372 408.2 374.8 407.9 376.3 407.9C378.6 407.9 380.7 408.6 381.1 411.1H386.5C385.9 405.8 381.5 403.8 376.6 403.8C372.3 403.8 366.7 405.4 366.7 410.6C366.7 415.4 370.5 416.8 374.3 417.6C378.1 418.5 381.9 418.8 382.1 421.5C382.2 424.2 378.8 424.6 376.8 424.6C374 424.6 371.7 423.5 371.4 420.5H366.3ZM361.9 395.4H356.7V407.5H356.6C355 404.9 351.7 403.8 348.7 403.8C343.5 403.8 338.4 407.6 338.4 416.1C338.4 423.2 342 428.7 349.5 428.7C352.5 428.7 355.5 427.6 356.8 424.9H356.9V428.1H361.8V395.4H361.9ZM343.6 416.5C343.6 412.2 345.3 407.9 350.2 407.9C354.2 407.9 356.8 411 356.8 416.2C356.8 420.3 354.8 424.6 350.1 424.6C345.7 424.7 343.6 420.6 343.6 416.5ZM318.2 414.2C318.3 410.7 320.8 407.9 324.4 407.9C327.9 407.9 330.2 410.9 330.4 414.2H318.2ZM335.6 417.6C336.5 410.5 331.9 403.8 324.4 403.8C317.3 403.8 312.9 409.6 312.9 416.3C312.9 423.6 317.1 428.8 324.5 428.8C329.7 428.8 334.1 425.9 335.2 420.7H330.3C329.4 423.3 327.5 424.6 324.5 424.6C320.1 424.6 318.1 421.3 318.1 417.6H335.6ZM292.7 414.2C292.8 410.7 295.3 407.9 298.9 407.9C302.4 407.9 304.7 410.9 304.9 414.2H292.7ZM310.1 417.6C311 410.5 306.4 403.8 298.9 403.8C291.8 403.8 287.4 409.6 287.4 416.3C287.4 423.6 291.6 428.8 299 428.8C304.2 428.8 308.6 425.9 309.7 420.7H304.8C303.9 423.3 302 424.6 299 424.6C294.6 424.6 292.6 421.3 292.6 417.6H310.1ZM257.6 417.2C257.7 425.3 263.8 428.9 271.3 428.9C277.8 428.9 284.3 426 284.3 418.6C284.3 415.2 282.2 411.5 277.9 410.3C276.2 409.8 269 407.9 268.5 407.8C266.1 407.2 264.6 405.9 264.6 403.6C264.6 400.3 267.9 399.3 270.6 399.3C274.5 399.3 277.4 400.9 277.7 405.1H283.4C283.4 398.3 277.7 394.7 270.8 394.7C264.9 394.7 258.8 397.8 258.8 404.3C258.8 407.7 260.4 411.1 266 412.6C270.5 413.8 273.5 414.4 275.8 415.3C277.1 415.8 278.5 416.8 278.5 419.3C278.5 421.8 276.6 424.2 271.6 424.2C267 424.2 263.3 422.2 263.3 417.2H257.6Z" fill="#178060"/>
</svg>
