<svg width="652" height="652" viewBox="0 0 652 652" fill="none" xmlns="http://www.w3.org/2000/svg">
<path d="M495.279 378.213C493.049 378.213 491.237 379.913 490.293 382.792L489.953 378.676H485.09V397.972H490.648V387.282C490.648 384.774 492.577 382.767 495.009 382.767C495.626 382.767 496.283 382.883 496.823 383.076L497.093 378.522C496.321 378.29 495.781 378.213 495.279 378.213Z" fill="black"/>
<path d="M436.229 378.213C433.999 378.213 432.187 379.913 431.243 382.792L430.903 378.676H426.04V397.972H431.598V387.282C431.598 384.774 433.528 382.767 435.959 382.767C436.577 382.767 437.233 382.883 437.773 383.076L438.043 378.522C437.271 378.29 436.731 378.213 436.229 378.213Z" fill="black"/>
<path d="M376.562 378.213C374.332 378.213 372.52 379.913 371.575 382.792L371.236 378.676H366.373V397.972H371.93V387.282C371.93 384.774 373.86 382.767 376.292 382.767C376.909 382.767 377.565 382.883 378.106 383.076L378.376 378.522C377.604 378.29 377.063 378.213 376.562 378.213Z" fill="black"/>
<path d="M333.722 378.213C330.711 378.213 328.445 379.61 327.48 382.07L327.2 378.676H322.414V397.972H327.972V386.24C327.972 384.195 329.824 382.343 331.87 382.343C333.8 382.343 335.228 383.963 335.228 386.086V397.972H340.785V385.198C340.785 381.03 337.929 378.213 333.722 378.213Z" fill="black"/>
<path d="M296.633 378.676H291.075V397.972H296.633V378.676Z" fill="black"/>
<path d="M293.854 375.666C295.552 375.666 296.903 374.316 296.903 372.618C296.903 370.92 295.552 369.569 293.854 369.569C292.156 369.569 290.805 370.92 290.805 372.618C290.805 374.316 292.156 375.666 293.854 375.666Z" fill="black"/>
<path d="M283.125 378.676L280.655 388.054C280.152 389.967 279.702 391.855 279.24 393.987C278.868 391.96 278.308 389.391 277.914 387.938L275.444 378.676H270.427L267.957 388.054C267.455 389.967 267.004 391.855 266.542 393.987C266.17 391.96 265.61 389.391 265.216 387.938L262.746 378.676H257.034L263.094 397.972H269.307L271.237 391.18C271.824 389.079 272.288 387.225 272.687 385.341C273.026 387.427 273.483 389.65 274.016 391.72L275.637 397.972H281.928L288.567 378.676H283.125Z" fill="black"/>
<path d="M319.018 387.089C319.018 381.686 315.467 378.213 310.025 378.213C304.043 378.213 300.068 382.343 300.068 388.517C300.068 394.576 303.927 398.435 309.987 398.435C312.804 398.435 315.66 397.625 317.86 396.197L316.741 392.839C315.197 393.843 313.152 394.422 311.222 394.422C308.018 394.422 306.081 392.801 305.643 389.868H318.709C318.902 388.98 319.018 388.015 319.018 387.089ZM305.595 386.356C306.122 383.754 307.658 382.227 309.909 382.227C312.21 382.227 313.762 383.832 313.877 386.356H305.595Z" fill="black"/>
<path d="M362.977 387.089C362.977 381.686 359.426 378.213 353.984 378.213C348.002 378.213 344.027 382.343 344.027 388.517C344.027 394.576 347.886 398.435 353.945 398.435C356.763 398.435 359.619 397.625 361.819 396.197L360.7 392.839C359.156 393.843 357.111 394.422 355.181 394.422C351.977 394.422 350.04 392.801 349.602 389.868H362.668C362.861 388.98 362.977 388.015 362.977 387.089ZM349.554 386.356C350.081 383.754 351.617 382.227 353.868 382.227C356.169 382.227 357.72 383.832 357.836 386.356H349.554Z" fill="black"/>
<path d="M392.617 378.213C390.067 378.213 387.835 379.428 386.365 381.5V369.646H380.807V397.972H385.516L385.72 395.491C387.045 397.373 389.207 398.435 391.768 398.435C397.133 398.435 401.185 393.997 401.185 388.131C401.185 382.497 397.48 378.213 392.617 378.213ZM390.842 394.499C388.102 394.499 386.172 392.222 386.172 388.903V388.208C386.172 384.812 388.179 382.343 390.958 382.343C393.698 382.343 395.512 384.735 395.512 388.324C395.512 392.029 393.659 394.499 390.842 394.499Z" fill="black"/>
<path d="M422.645 387.089C422.645 381.686 419.094 378.213 413.652 378.213C407.67 378.213 403.694 382.343 403.694 388.517C403.694 394.576 407.554 398.435 413.613 398.435C416.431 398.435 419.287 397.625 421.487 396.197L420.368 392.839C418.824 393.843 416.778 394.422 414.848 394.422C411.644 394.422 409.707 392.801 409.27 389.868H422.336C422.529 388.98 422.645 388.015 422.645 387.089ZM409.221 386.356C409.748 383.754 411.285 382.227 413.536 382.227C415.836 382.227 417.388 383.832 417.504 386.356H409.221Z" fill="black"/>
<path d="M454.639 378.676L454.435 381.157C453.111 379.275 450.948 378.213 448.387 378.213C443.022 378.213 438.97 382.651 438.97 388.517C438.97 394.151 442.675 398.435 447.538 398.435C450.088 398.435 452.32 397.221 453.79 395.149V397.123C453.79 401.059 451.552 403.298 447.499 403.298C445.299 403.298 442.791 402.68 440.745 401.6L439.935 405.497C442.482 406.694 445.57 407.388 448.387 407.388C455.18 407.388 459.348 403.298 459.348 396.621V378.676H454.639ZM453.983 388.44C453.983 391.836 451.976 394.306 449.197 394.306C446.457 394.306 444.643 391.913 444.643 388.324C444.643 384.619 446.496 382.15 449.313 382.15C452.054 382.15 453.983 384.426 453.983 387.745V388.44Z" fill="black"/>
<path d="M481.694 387.089C481.694 381.686 478.143 378.213 472.701 378.213C466.719 378.213 462.744 382.343 462.744 388.517C462.744 394.576 466.603 398.435 472.663 398.435C475.48 398.435 478.336 397.625 480.536 396.197L479.417 392.839C477.873 393.843 475.827 394.422 473.898 394.422C470.694 394.422 468.757 392.801 468.319 389.868H481.385C481.578 388.98 481.694 388.015 481.694 387.089ZM468.271 386.356C468.797 383.754 470.334 382.227 472.585 382.227C474.885 382.227 476.437 383.832 476.553 386.356H468.271Z" fill="black"/>
<path d="M206.369 378.676H212.043L215.951 393.612L219.765 378.676H224.734L228.559 393.612L232.393 378.676H237.736L231.109 397.972H224.977L221.927 385.408L218.4 397.972H212.41L206.369 378.676Z" fill="black"/>
<path d="M221.981 365.723C210.167 365.723 200.589 375.299 200.589 387.112C200.589 398.925 210.167 408.502 221.981 408.502C233.796 408.502 243.373 398.925 243.373 387.112C243.373 375.299 233.796 365.723 221.981 365.723ZM221.981 366.794C224.725 366.794 227.386 367.33 229.89 368.39C232.31 369.413 234.484 370.878 236.35 372.745C238.217 374.611 239.682 376.784 240.705 379.204C241.765 381.708 242.302 384.369 242.302 387.112C242.302 389.856 241.765 392.516 240.705 395.02C239.682 397.44 238.217 399.613 236.35 401.479C234.484 403.346 232.31 404.811 229.89 405.834C227.386 406.894 224.725 407.431 221.981 407.431C219.238 407.431 216.577 406.894 214.072 405.834C211.652 404.811 209.479 403.346 207.613 401.479C205.746 399.613 204.28 397.44 203.257 395.02C202.197 392.516 201.661 389.856 201.661 387.112C201.661 384.369 202.197 381.708 203.257 379.204C204.28 376.784 205.746 374.611 207.613 372.745C209.479 370.878 211.652 369.413 214.072 368.39C216.577 367.33 219.238 366.794 221.981 366.794Z" fill="black"/>
<path d="M652 300.042C652 331.207 626.737 356.478 595.558 356.478C564.392 356.478 539.117 331.207 539.117 300.042C539.117 268.873 564.392 243.606 595.558 243.606C626.737 243.606 652 268.873 652 300.042Z" fill="#003087"/>
<path d="M641.291 296.742C641.291 273.309 622.297 254.319 598.86 254.319C575.422 254.319 556.429 273.309 556.429 296.742C556.429 320.176 575.422 339.166 598.86 339.166C622.297 339.166 641.291 320.176 641.291 296.742Z" fill="#41B6E6"/>
<path d="M627.843 286.838C627.843 276.299 619.303 267.764 608.761 267.764C598.237 267.764 589.697 276.299 589.697 286.838C589.697 297.374 598.237 305.908 608.761 305.908C619.303 305.908 627.843 297.374 627.843 286.838Z" fill="white"/>
<path d="M35.3792 259.992H0.436878C0.209781 259.992 0.0961914 260.109 0.0961914 260.335V339.746C0.0961914 339.972 0.209781 340.085 0.436878 340.085H18.6438C18.875 340.085 18.9844 339.972 18.9844 339.746V312.563L37.9904 311.989C48.3511 311.65 61.1003 304.397 61.1003 285.371C61.1003 270.192 50.5124 259.992 35.3792 259.992ZM31.8512 296.579H18.875V275.741H30.8211C39.584 275.741 43.7972 279.817 43.7972 286.501C43.7972 292.281 39.4747 296.579 31.8512 296.579Z" fill="#003087"/>
<path d="M75.5551 259.992H93.7596C93.9475 259.992 94.1001 260.145 94.1001 260.333V339.746C94.1001 339.933 93.9482 340.085 93.7612 340.085H75.5525C75.3645 340.085 75.2119 339.932 75.2119 339.744V260.335C75.2119 260.146 75.3657 259.992 75.5551 259.992Z" fill="#003087"/>
<path d="M150.205 259.992H115.271C115.04 259.992 114.931 260.109 114.931 260.335V339.746C114.931 339.972 115.04 340.085 115.271 340.085H133.478C133.705 340.085 133.819 339.972 133.819 339.746V312.563L152.829 311.989C163.186 311.65 175.93 304.397 175.93 285.371C175.93 270.192 165.351 259.992 150.205 259.992ZM146.682 296.579H133.705V275.741H145.66C154.423 275.741 158.636 279.817 158.636 286.501C158.636 292.281 154.305 296.579 146.682 296.579Z" fill="#003087"/>
<path d="M247.636 323.206H208.253V308.934L233.52 308.704C233.752 308.704 233.861 308.591 233.861 308.365V293.19C233.861 292.959 233.752 292.846 233.52 292.846L208.253 292.503V276.988L245.012 276.645C245.243 276.645 245.357 276.532 245.357 276.306V260.335C245.357 260.105 245.243 259.992 245.012 259.992H189.929C189.706 259.992 189.588 260.105 189.588 260.335V339.746C189.588 339.972 189.706 340.085 189.929 340.085H247.636C247.859 340.085 247.981 339.972 247.981 339.746V323.545C247.981 323.319 247.859 323.206 247.636 323.206Z" fill="#003087"/>
<path d="M314.421 322.98L282.343 322.867V260.335C282.343 260.105 282.237 259.992 282.002 259.992H263.795C263.568 259.992 263.45 260.105 263.45 260.335V339.746C263.45 339.972 263.568 340.085 263.795 340.085H314.421C314.648 340.085 314.766 339.972 314.766 339.746V323.319C314.766 323.093 314.648 322.98 314.421 322.98Z" fill="#003087"/>
<path d="M347.312 259.992H329.105C328.873 259.992 328.764 260.109 328.764 260.335V339.746C328.764 339.972 328.873 340.085 329.105 340.085H347.312C347.543 340.085 347.657 339.972 347.657 339.746V260.335C347.657 260.109 347.543 259.992 347.312 259.992Z" fill="#003087"/>
<path d="M424.366 259.992H368.824C368.593 259.992 368.479 260.109 368.479 260.335V339.746C368.479 339.972 368.593 340.085 368.824 340.085H387.039C387.262 340.085 387.38 339.972 387.38 339.746V312.102L410.363 311.876C410.599 311.876 410.704 311.763 410.704 311.533V295.901C410.704 295.68 410.599 295.562 410.363 295.562L387.38 295.223V276.988L424.366 276.758C424.593 276.758 424.706 276.65 424.706 276.419V260.335C424.706 260.109 424.593 259.992 424.366 259.992Z" fill="#003087"/>
<path d="M496.752 323.206H457.369V308.934L482.636 308.704C482.867 308.704 482.981 308.591 482.981 308.365V293.19C482.981 292.959 482.867 292.846 482.636 292.846L457.369 292.503V276.988L494.132 276.645C494.359 276.645 494.477 276.532 494.477 276.306V260.335C494.477 260.105 494.359 259.992 494.132 259.992H439.049C438.822 259.992 438.712 260.105 438.712 260.335V339.746C438.712 339.972 438.822 340.085 439.049 340.085H496.752C496.975 340.085 497.093 339.972 497.093 339.746V323.545C497.093 323.319 496.975 323.206 496.752 323.206Z" fill="#003087"/>
</svg>
